<svg
  xmlns="http://www.w3.org/2000/svg"
  width="40.459"
  height="40.501"
  viewBox="0 0 40.459 40.501"
>
  <g
    id="email-mail-svgrepo-com"
    transform="translate(-0.261 0)"
  >
    <path
      id="Path_2"
      data-name="Path 2"
      d="M40.72,199.717a1.715,1.715,0,0,1-.506,1.264,1.827,1.827,0,0,1-1.18.421H1.947a2.015,2.015,0,0,1-1.18-.421,1.715,1.715,0,0,1-.506-1.264v-24.7H40.72v24.7Z"
      transform="translate(0 -160.901)"
      fill="#ffd15c"
    ></path>
    <path
      id="Path_3"
      data-name="Path 3"
      d="M45.978,303.767a1.827,1.827,0,0,1-1.18.421H7.71a2.015,2.015,0,0,1-1.18-.421l19.724-16.942Z"
      transform="translate(-5.763 -263.687)"
      fill="#f8b64c"
    ></path>
    <path
      id="Path_4"
      data-name="Path 4"
      d="M40.72,14.119l-5.732,4.13-13.4,9.609a1.9,1.9,0,0,1-2.276,0L5.993,18.249.261,14.119l5.732-4.13L18.468,1.054,19.395.38a1.9,1.9,0,0,1,2.276,0l.927.674,5.985,4.3,2.95,2.107,3.456,2.529Z"
      transform="translate(0)"
      fill="#40596b"
    ></path>
    <path
      id="Path_5"
      data-name="Path 5"
      d="M100.31,18.287V30.256l-13.4,9.609a1.9,1.9,0,0,1-2.276,0L71.314,30.256V14.747A1.691,1.691,0,0,1,73,13.061H95Z"
      transform="translate(-65.321 -12.007)"
      fill="#f2f2f2"
    ></path>
    <path
      id="Path_6"
      data-name="Path 6"
      d="M365.974,16.938a1.331,1.331,0,0,0,1.349,1.349H371.2l-5.226-5.226v3.877Z"
      transform="translate(-336.212 -12.007)"
      fill="#cdd6e0"
    ></path>
    <path
      id="Path_7"
      data-name="Path 7"
      d="M183.964,112.616h1.349a4.453,4.453,0,0,1-2.023,2.107,7.433,7.433,0,0,1-3.793.843,8.316,8.316,0,0,1-3.709-.759,4.971,4.971,0,0,1-2.36-2.192,6.563,6.563,0,0,1-.759-3.119,6.994,6.994,0,0,1,.843-3.456,5.322,5.322,0,0,1,2.36-2.36,7.709,7.709,0,0,1,3.456-.759,6.613,6.613,0,0,1,2.95.674,4.138,4.138,0,0,1,1.939,1.854,5.476,5.476,0,0,1,.674,2.613,5.05,5.05,0,0,1-1.011,3.034,3.791,3.791,0,0,1-3.287,1.686,2.115,2.115,0,0,1-.843-.169.853.853,0,0,1-.337-.59,2.426,2.426,0,0,1-1.77.759,2.177,2.177,0,0,1-1.77-.759,2.734,2.734,0,0,1-.759-2.023,5.151,5.151,0,0,1,.843-2.866,3.135,3.135,0,0,1,2.7-1.517,2.087,2.087,0,0,1,1.77.927l.169-.759h1.77l-1.012,4.72a2.224,2.224,0,0,0-.084.59.31.31,0,0,0,.084.253c.084.084.084.084.169.084a1.908,1.908,0,0,0,.843-.421,3.518,3.518,0,0,0,1.1-1.349,4.529,4.529,0,0,0,.421-1.77,3.5,3.5,0,0,0-1.18-2.7,4.436,4.436,0,0,0-3.287-1.1,5.791,5.791,0,0,0-3.034.759,4.762,4.762,0,0,0-1.854,2.023,6.107,6.107,0,0,0-.59,2.782,5.15,5.15,0,0,0,.674,2.529,4.181,4.181,0,0,0,1.939,1.686,7.561,7.561,0,0,0,2.866.506,8.627,8.627,0,0,0,2.7-.421A5.028,5.028,0,0,0,183.964,112.616Zm-7.165-2.7a1.884,1.884,0,0,0,.337,1.264,1.17,1.17,0,0,0,.843.421,1.588,1.588,0,0,0,.674-.169,2.234,2.234,0,0,0,.506-.421,3.078,3.078,0,0,0,.59-1.18A4.675,4.675,0,0,0,180,108.4a1.784,1.784,0,0,0-.337-1.18,1.17,1.17,0,0,0-.843-.421,1.555,1.555,0,0,0-1.012.421,2.315,2.315,0,0,0-.759,1.264A4.678,4.678,0,0,0,176.8,109.919Z"
      transform="translate(-158.5 -94.62)"
      fill="#ff7058"
    ></path>
  </g>
</svg>
